<svg width="220" height="59" viewBox="0 0 220 59" fill="none" xmlns="http://www.w3.org/2000/svg">
<path d="M0 5C0 2.23858 2.23858 0 5 0H215.28C218.058 0 219.99 2.7632 219.037 5.37296L210.596 28.4703C210.353 29.1353 210.353 29.8647 210.596 30.5297L219.037 53.627C219.99 56.2368 218.058 59 215.28 59H5C2.23857 59 0 56.7614 0 54V5Z" fill="#F61D1D"/>
<path d="M14.1657 41.78C14.1657 42.2867 14.2657 42.6467 14.4657 42.86C14.679 43.06 14.959 43.16 15.3057 43.16C15.6524 43.16 15.9257 43.06 16.1257 42.86C16.339 42.6467 16.4457 42.2867 16.4457 41.78V34.22C16.4457 33.7133 16.339 33.36 16.1257 33.16C15.9257 32.9467 15.6524 32.84 15.3057 32.84C14.959 32.84 14.679 32.9467 14.4657 33.16C14.2657 33.36 14.1657 33.7133 14.1657 34.22V41.78ZM11.9657 34.36C11.9657 33.2267 12.2524 32.36 12.8257 31.76C13.399 31.1467 14.2257 30.84 15.3057 30.84C16.3857 30.84 17.2124 31.1467 17.7857 31.76C18.359 32.36 18.6457 33.2267 18.6457 34.36V41.64C18.6457 42.7733 18.359 43.6467 17.7857 44.26C17.2124 44.86 16.3857 45.16 15.3057 45.16C14.2257 45.16 13.399 44.86 12.8257 44.26C12.2524 43.6467 11.9657 42.7733 11.9657 41.64V34.36Z" fill="white"/>
<path d="M19.4354 31H26.2354V33H23.9354V45H21.7354V33H19.4354V31Z" fill="white"/>
<path d="M35.8821 22.968C36.6501 22.968 37.2741 22.884 37.7541 22.716C38.2581 22.548 38.6661 22.32 38.9781 22.032C39.2901 21.744 39.5421 21.408 39.7341 21.024C39.9261 20.64 40.0941 20.232 40.2381 19.8H42.9021V45H38.9421V25.776H35.8821V22.968Z" fill="white"/>
<path d="M47.7076 45V41.184H51.5236V44.604L49.7956 48.6H48.1756L49.2196 45H47.7076Z" fill="white"/>
<path d="M57.9513 36.864V39.204C57.9513 40.116 58.1313 40.752 58.4913 41.112C58.8753 41.472 59.3793 41.652 60.0033 41.652C60.6273 41.652 61.1193 41.472 61.4793 41.112C61.8633 40.752 62.0553 40.116 62.0553 39.204V33.66C62.0553 32.748 61.8633 32.112 61.4793 31.752C61.1193 31.368 60.6273 31.176 60.0033 31.176C59.3793 31.176 58.8753 31.368 58.4913 31.752C58.1313 32.112 57.9513 32.748 57.9513 33.66V34.416H54.2073L54.9273 19.8H65.3673V23.4H58.4913L58.1673 29.412C58.9113 28.188 60.0633 27.576 61.6233 27.576C63.0873 27.576 64.1793 28.068 64.8993 29.052C65.6433 30.036 66.0153 31.464 66.0153 33.336V38.952C66.0153 40.992 65.5113 42.564 64.5033 43.668C63.5193 44.748 62.0553 45.288 60.1113 45.288C58.1673 45.288 56.6913 44.748 55.6833 43.668C54.6993 42.564 54.2073 40.992 54.2073 38.952V36.864H57.9513Z" fill="white"/>
<path d="M78.2705 40.94L79.7705 31H82.8306V45H80.7505V34.96L79.2305 45H77.1505L75.5105 35.1V45H73.5905V31H76.6505L78.2705 40.94Z" fill="white"/>
<path d="M83.8109 43.02C84.0642 43.02 84.2709 43.0067 84.4309 42.98C84.6042 42.9533 84.7442 42.8933 84.8509 42.8C84.9575 42.6933 85.0309 42.5467 85.0709 42.36C85.1242 42.16 85.1575 41.9 85.1709 41.58L85.5309 31H91.7509V45H89.5109V33H87.5909L87.3509 41.46C87.3109 42.74 87.0375 43.6533 86.5309 44.2C86.0375 44.7467 85.2442 45.02 84.1509 45.02H83.8109V43.02Z" fill="white"/>
<path d="M95.6348 45H93.4348V31H95.6348V37H98.1348V31H100.375V45H98.1348V39H95.6348V45Z" fill="white"/>
<path d="M105.095 45V31H110.895V33H107.295V45H105.095Z" fill="white"/>
<path d="M115.62 31C116.727 31 117.547 31.2933 118.08 31.88C118.627 32.4667 118.9 33.3267 118.9 34.46V36.28C118.9 37.4133 118.627 38.2733 118.08 38.86C117.547 39.4467 116.727 39.74 115.62 39.74H114.58V45H112.38V31H115.62ZM114.58 33V37.74H115.62C115.967 37.74 116.233 37.6467 116.42 37.46C116.607 37.2733 116.7 36.9267 116.7 36.42V34.32C116.7 33.8133 116.607 33.4667 116.42 33.28C116.233 33.0933 115.967 33 115.62 33H114.58Z" fill="white"/>
<path d="M122.119 45H119.919V31H122.119V37H124.619V31H126.859V45H124.619V39H122.119V45Z" fill="white"/>
</svg>
